P3
# CREATOR: GIMP PNM Filter Version 1.1
10 10
255
127
126
126
135
134
133
141
139
138
113
112
111
90
89
87
89
89
87
123
123
122
123
123
123
123
123
122
109
108
108
146
144
144
151
148
148
86
85
84
25
23
20
46
40
34
37
32
27
39
39
37
121
121
120
128
127
127
118
117
117
147
145
144
133
131
130
56
47
38
189
137
97
220
161
122
211
154
114
110
82
59
47
47
45
133
132
132
126
125
125
168
165
165
111
109
107
103
78
58
194
141
105
229
169
139
215
158
126
170
123
90
33
31
27
128
127
126
134
133
133
165
162
162
133
130
128
140
104
78
180
141
131
203
149
124
183
144
134
165
121
99
65
54
45
142
141
140
134
133
132
150
149
148
164
157
155
173
125
90
226
164
132
208
144
113
207
145
114
212
152
118
118
101
89
142
141
140
129
129
129
143
142
142
155
151
149
173
126
94
221
158
126
205
124
105
204
136
112
209
149
119
128
110
97
135
134
134
126
126
126
141
140
140
145
144
143
141
114
96
200
142
105
217
153
126
205
144
110
164
118
89
118
112
107
129
128
128
119
119
119
125
124
125
116
111
109
122
97
78
158
117
87
162
118
93
153
112
84
149
109
80
89
77
71
112
110
109
114
114
114
71
60
53
72
56
47
138
104
78
217
167
127
213
163
127
218
168
130
178
136
105
73
56
48
68
53
45
73
63
57
